<svg xml:space="preserve" style="max-height: 500px" viewBox="129 150 541 200" y="0px" x="0px" xmlns:xlink="http://www.w3.org/1999/xlink" xmlns="http://www.w3.org/2000/svg" id="Layer_1" version="1.1" width="541" height="200">
<style type="text/css">
	.st0{fill:#52B1CC;}
	.st1{fill:#73BF93;}
	.st2{fill:#002E36;}
	.st3{fill:#FFFFFF;}
</style>
<g>
	<g>
		<g>
			<path d="M634,235.6L634,235.6c-3-6.2-0.3-13.7,5.9-16.6l13-6.2l-100.9-48.4l-101.2,48.4l13,6.2&#xA;&#9;&#9;&#9;&#9;c6.2,3,8.9,10.4,5.9,16.6l0,0l-25.8-12.3c-4.1-1.9-6.7-6-6.7-10.5c0-4.5,2.6-8.6,6.7-10.5L547,153c3.2-1.5,6.9-1.5,10,0&#xA;&#9;&#9;&#9;&#9;l102.9,49.3c4.1,1.9,6.6,6,6.6,10.5c0,4.5-2.6,8.6-6.7,10.5L634,235.6L634,235.6L634,235.6z M654.5,213.6L654.5,213.6&#xA;&#9;&#9;&#9;&#9;L654.5,213.6L654.5,213.6L654.5,213.6z M449.3,213.6L449.3,213.6L449.3,213.6L449.3,213.6L449.3,213.6z" class="st0"/>
			<path d="M555.6,346.4c-2.3,1.1-5.1,1.1-7.4,0l-104.6-49.6c-4.1-1.9-6.6-5.9-6.7-10.4c-0.1-4.5,2.4-8.5,6.4-10.5&#xA;&#9;&#9;&#9;&#9;l25.9-13.1l0,0c3.1,6.1,0.7,13.7-5.5,16.8l-13.2,6.7l101.4,48l101.4-48l-13.2-6.7c-6.2-3.1-8.6-10.6-5.5-16.8l0,0l25.6,12.9&#xA;&#9;&#9;&#9;&#9;c3.7,1.9,6.4,5.5,6.7,9.6c0.4,4.9-2.2,9.4-6.6,11.5L555.6,346.4L555.6,346.4L555.6,346.4z" class="st1"/>
			<path d="M558.2,279.2v-47.7l22.6,11.4c3.1-6.1,0.7-13.7-5.5-16.8l-9.5-4.8l30.7-15.1c-3.1-6.2-10.6-8.7-16.8-5.7&#xA;&#9;&#9;&#9;&#9;l-21.6,10.6v-3.9c0-5.2-2.3-10.2-6.2-13.6c-4,3.4-6.3,8.4-6.3,13.6v4l-23.3-11c-6.2-3-13.7-0.3-16.7,5.9l32.2,15.2l-9.3,4.7&#xA;&#9;&#9;&#9;&#9;c-6.2,3.1-8.6,10.6-5.5,16.8l0,0l22.6-11.4v47.6l-50.5-25.6v0.1c0,8.6,4.8,16.4,12.5,20.2l30.5,15.4l-20.8,10.4&#xA;&#9;&#9;&#9;&#9;c3.1,6.2,10.6,8.6,16.8,5.6l17.9-8.9l17.5,8.9h0c6.2,3.1,13.7,0.7,16.8-5.4l-20.5-10.5l30.5-15.3c7.7-3.9,12.5-11.7,12.5-20.3&#xA;&#9;&#9;&#9;&#9;L558.2,279.2z" class="st2"/>
			<path d="M177.1,180.8c-2.3,2.3-5.8,3-8.7,1.6c-2.6-1.3-5.5-1.9-8.6-1.9c-9.5,0-17.6,7.2-17.6,17.3&#xA;&#9;&#9;&#9;&#9;c0,9.4,7.4,17.2,17.1,17.2c5.1,0,9.3-1.2,12.7-3.7v-8.6h-12.2c0-4.2,3.4-7.6,7.6-7.6h13.5v21c-5.8,4.9-13.5,7.7-21.6,7.7&#xA;&#9;&#9;&#9;&#9;c-14.5,0.3-27.3-12-27-26c-0.3-15.2,13.1-26.2,27.5-26c7.2,0,13.9,2.5,19.1,7.1L177.1,180.8L177.1,180.8L177.1,180.8z" class="st2"/>
			<path d="M229.8,180.9h-30.1v12.5h23.8c2.2,0,4,1.8,4,4l0,0c0,2.2-1.8,4-4,4h-23.8v13.2h30.6c0,4.6-3.8,8.4-8.4,8.4&#xA;&#9;&#9;&#9;&#9;h-31.7v-50.5h31.1C226,172.6,229.8,176.3,229.8,180.9L229.8,180.9L229.8,180.9L229.8,180.9z" class="st2"/>
			<path d="M261.8,223.7c-14.5,0.3-27.3-12-27-26c-0.4-14,12.4-26.2,27-26c14.5-0.3,27.1,12,26.8,26&#xA;&#9;&#9;&#9;&#9;C289,211.8,276.3,224,261.8,223.7L261.8,223.7z M261.8,214.9c9.5,0,17-7.7,17-17.2c0-9.4-7.4-17.2-17-17.2&#xA;&#9;&#9;&#9;&#9;c-9.5,0-17.1,7.7-17.1,17.2C244.8,207.2,252.2,214.9,261.8,214.9L261.8,214.9z" class="st2"/>
			<path d="M336.7,177.4c-2.2,3.9-6.8,5.8-11.1,4.4c-3.5-1.1-7.1-1.8-10.1-1.8c-5.4,0-9.1,2-9.1,6.1&#xA;&#9;&#9;&#9;&#9;c0,2.7,1.4,3.8,9.5,6l5.5,1.5c11.2,3.1,16.4,5.8,16.7,14.6c0,10.1-8.1,15.6-20.9,15.6c-8.3,0-16.8-2.4-23.1-6.7l0,0&#xA;&#9;&#9;&#9;&#9;c2.3-3.8,7-5.4,11.2-3.9c4.2,1.5,8.8,2.4,12.7,2.4c6.1,0,10.2-2.2,10.2-6.8c0-3.5-2-4.5-9.2-6.3l-5.7-1.4c-12-3-16.8-6-17.1-14.2&#xA;&#9;&#9;&#9;&#9;c0-4.9,1.9-8.6,5.6-11.1c3.7-2.5,8.5-3.8,14.5-3.8c7.3,0,14.9,2,20.6,5.4L336.7,177.4L336.7,177.4L336.7,177.4z" class="st2"/>
			<path d="M381.2,211.9h-24.6L352,223l0,0c-5,0-8.5-5.1-6.5-9.8l14.8-35c1.5-3.4,4.8-5.7,8.6-5.7l0,0&#xA;&#9;&#9;&#9;&#9;c3.7,0,7.1,2.2,8.6,5.7l14.8,35c2,4.6-1.4,9.8-6.5,9.8h-0.1L381.2,211.9L381.2,211.9L381.2,211.9z M377.9,204.1l-9.1-22.1&#xA;&#9;&#9;&#9;&#9;l-9.1,22.1H377.9L377.9,204.1L377.9,204.1z" class="st2"/>
			<g>
				<path d="M136.4,242.1c0.7,0,1.3-0.6,1.3-1.3c0-0.7-0.6-1.3-1.3-1.3c-0.7,0-1.3,0.6-1.3,1.3&#xA;&#9;&#9;&#9;&#9;&#9;C135.1,241.5,135.7,242.1,136.4,242.1z" class="st2"/>
				<path d="M140,242.1c0.7,0,1.3-0.6,1.3-1.3c0-0.7-0.6-1.3-1.3-1.3c-0.7,0-1.3,0.6-1.3,1.3&#xA;&#9;&#9;&#9;&#9;&#9;C138.7,241.5,139.3,242.1,140,242.1z" class="st2"/>
				<path d="M138.4,252.9h6.5h4.6h4.5h0h4.5h4.6h4.4c0,0,0.1,0,0.2,0h10.3h0l0.6-1.9c-1.3-0.6-1.8-1.8-2.4-3.8&#xA;&#9;&#9;&#9;&#9;&#9;c-0.8-2.8-1.7-3.9-4.3-4c-1.3,0-2.5,0.4-3.6,1.3l0.1,0.1c0.6,0.7,1.5,1,2.4,0.7c0.3-0.1,0.7-0.1,1-0.1c1.6,0.1,1.9,0.7,2.5,2.8&#xA;&#9;&#9;&#9;&#9;&#9;c0.3,1.2,0.6,1.8,1.3,2.6H168v0h-4.6h-0.6h-4h-0.6h-4h-0.6h-4h-0.6h-4v0h-3.1v-6c-0.9-0.5-2.5-1-4-1c-3,0-5,1.8-5,4.6&#xA;&#9;&#9;&#9;&#9;&#9;S135.3,252.9,138.4,252.9z M138,245.7c0.7,0,1.4,0.1,2,0.5v4.5h-1.9c-1.7,0-2.8-0.8-2.8-2.5C135.4,246.5,136.5,245.7,138,245.7z" class="st2"/>
				<path d="M216.2,252.1c0.9,0.5,1.9,0.7,2.9,0.8c0,0,0.1,0,0.1,0c0,0,0.1,0,0.1,0h0h0c1.4,0,2.7-0.3,3.9-1&#xA;&#9;&#9;&#9;&#9;&#9;c1.1,0.6,2.3,0.9,3.6,1c0,0,0.1,0,0.3,0h0c2,0,3.9-0.8,5-1.9l0,0v-11.4c-1.2,0-2.2,1-2.2,2.2v8.3c-0.7,0.4-1.7,0.6-2.7,0.6h-0.2&#xA;&#9;&#9;&#9;&#9;&#9;c-1,0-2.1-0.2-2.8-0.6v-10.4c-1.2,0-2.2,1-2.2,2.2v8.3c-0.8,0.4-1.7,0.6-2.8,0.6c-0.9,0-1.6-0.1-2.3-0.4&#xA;&#9;&#9;&#9;&#9;&#9;c0.1-0.3,0.1-0.7,0.1-1.2c0-2.7-1.9-4.7-4.6-4.7c-2.7,0-4.6,2-4.6,4.7c0,0.4,0,0.8,0.1,1.2c-0.6,0.3-1.4,0.4-2.3,0.4&#xA;&#9;&#9;&#9;&#9;&#9;c-1,0-2.1-0.2-2.8-0.6v-4.8h-2.2v4.9c-0.5,0.4-1.2,0.6-1.8,0.6s-1.3-0.2-1.8-0.5v-4.1H195v4.1c-0.6,0.4-1.2,0.5-1.8,0.5&#xA;&#9;&#9;&#9;&#9;&#9;s-1.3-0.2-1.8-0.6v-4.1h-2.2v4c-0.8,0.4-1.7,0.6-2.7,0.6h-0.2c-1,0-2.1-0.2-2.8-0.6v-10.4c-1.2,0-2.2,1-2.2,2.2v8.6&#xA;&#9;&#9;&#9;&#9;&#9;c0,0.8,0.2,1.1,0.9,1.5c1,0.6,2.4,0.9,3.9,1c0,0,0.1,0,0.1,0c0,0,0.1,0,0.1,0h0c0,0,0,0,0,0c0,0,0,0,0,0h0c1.6,0,3-0.4,3.8-1&#xA;&#9;&#9;&#9;&#9;&#9;c0.7,0.6,1.8,1,3,1c1.1,0,2.1-0.3,2.9-1c0.8,0.6,1.8,1,2.9,1c1.1,0,2.2-0.3,3.1-0.9c1.1,0.6,2.2,0.9,3.4,0.9c0,0,0.1,0,0.2,0&#xA;&#9;&#9;&#9;&#9;&#9;c0,0,0,0,0.1,0h0h0c1.1,0,2.2-0.3,3.1-0.8c0.8,1,2.1,1.7,3.6,1.7C214,253.8,215.3,253.2,216.2,252.1z M210.1,249.1&#xA;&#9;&#9;&#9;&#9;&#9;c0-1.5,1-2.6,2.4-2.6c1.5,0,2.5,1.1,2.5,2.6c0,1.5-1,2.6-2.5,2.6C211.1,251.7,210.1,250.6,210.1,249.1z" class="st2"/>
				<path d="M242.8,242.1c0.7,0,1.3-0.6,1.3-1.3c0-0.7-0.6-1.3-1.3-1.3c-0.7,0-1.3,0.6-1.3,1.3&#xA;&#9;&#9;&#9;&#9;&#9;C241.5,241.5,242,242.1,242.8,242.1z" class="st2"/>
				<path d="M246.3,242.1c0.7,0,1.3-0.6,1.3-1.3c0-0.7-0.6-1.3-1.3-1.3c-0.7,0-1.3,0.6-1.3,1.3&#xA;&#9;&#9;&#9;&#9;&#9;C245,241.5,245.6,242.1,246.3,242.1z" class="st2"/>
				<path d="M244.8,252.9h6.5h4.6h4.5h0h4.5h0c1.1,0,2.2-0.3,3.2-0.8c0.9,1.1,2.1,1.7,3.6,1.7l0,0c2.7,0,4.6-2,4.6-4.7&#xA;&#9;&#9;&#9;&#9;&#9;c0-2.7-1.9-4.7-4.6-4.7c-2.7,0-4.6,2-4.6,4.7c0,0.4,0,0.8,0.1,1.2c-0.6,0.3-1.4,0.4-2.4,0.4h-0.3h-4h-0.6h-4h-0.6h-4v0h-3.1v-6&#xA;&#9;&#9;&#9;&#9;&#9;c-0.9-0.5-2.5-1-4-1c-3,0-5,1.8-5,4.6S241.6,252.9,244.8,252.9z M271.7,246.4c1.5,0,2.5,1.1,2.5,2.6c0,1.5-1,2.6-2.5,2.6&#xA;&#9;&#9;&#9;&#9;&#9;c-1.5,0-2.4-1.1-2.4-2.6C269.3,247.6,270.3,246.4,271.7,246.4z M244.4,245.7c0.7,0,1.4,0.1,2,0.5v4.5h-1.9&#xA;&#9;&#9;&#9;&#9;&#9;c-1.7,0-2.8-0.8-2.8-2.5C241.7,246.5,242.8,245.7,244.4,245.7z" class="st2"/>
				<path d="M280.2,251.9c1,0.6,2.4,0.9,3.9,1c0,0,0.1,0,0.2,0c0,0,0,0,0.1,0h0h4.6h4.3h0.2h12.2c0,0,0.1,0,0.2,0h0&#xA;&#9;&#9;&#9;&#9;&#9;c0.1,0,0.1,0,0.2,0h0v0c1.9-0.1,3.7-0.8,4.8-1.9l0,0v-11.4c-1.2,0-2.2,1-2.2,2.2v8.3c-0.7,0.4-1.7,0.5-2.6,0.6l0,0h-4&#xA;&#9;&#9;&#9;&#9;&#9;c1.3-0.9,2.2-2.4,2.2-3.9c0-2.3-1.8-3.5-4.6-3.5c-1.6,0-3.2,0.4-4.8,1.2l-0.4,1.7l2.9,4.6h-3.6h-0.5h-4h-0.6h-4l0,0h-0.3&#xA;&#9;&#9;&#9;&#9;&#9;c-1,0-2.1-0.2-2.8-0.6v-10.4c-1.2,0-2.2,1-2.2,2.2v8.6C279.3,251.2,279.5,251.6,280.2,251.9z M296.8,245.9&#xA;&#9;&#9;&#9;&#9;&#9;c0.9-0.4,1.7-0.6,2.6-0.6c1.5,0,2.5,0.7,2.5,1.9c0,1.3-1.1,2.5-2.7,3.1L296.8,245.9z" class="st2"/>
				<path d="M316.6,250.7v-11.1c-1.2,0-2.2,1-2.2,2.2v11.1C315.6,252.9,316.6,251.9,316.6,250.7z" class="st2"/>
				<path d="M330.8,242.1c0.7,0,1.3-0.6,1.3-1.3c0-0.7-0.6-1.3-1.3-1.3c-0.7,0-1.3,0.6-1.3,1.3&#xA;&#9;&#9;&#9;&#9;&#9;C329.5,241.5,330.1,242.1,330.8,242.1z" class="st2"/>
				<path d="M329.3,252.9h6.5h0h4.5c0,0,0,0,0,0c0,0,0,0,0,0h0c1.4,0,2.7-0.3,3.9-1c1.1,0.6,2.3,0.9,3.7,1&#xA;&#9;&#9;&#9;&#9;&#9;c0,0,0.1,0,0.2,0c0,0,0,0,0,0h0h0h0c1.4,0,2.7-0.3,3.9-1c1.1,0.6,2.3,1,3.7,1c0,0,0.1,0,0.1,0c0,0,0,0,0.1,0h0h4.6h4.6h4.6h15.9&#xA;&#9;&#9;&#9;&#9;&#9;c0,0,0.1,0,0.2,0h0c2,0,3.9-0.8,5-1.9l0,0v-11.4c-1.2,0-2.2,1-2.2,2.2v8.3c-0.7,0.4-1.7,0.6-2.7,0.6h-2.5v-2.3&#xA;&#9;&#9;&#9;&#9;&#9;c0-2.6-0.7-4.5-2.1-5.7c-1.4-1.2-3.2-1.8-5.5-1.8c-0.7,0-1.5,0.1-2.3,0.2c0,1,0.8,1.8,1.9,1.8c0.1,0,0.2,0,0.3,0&#xA;&#9;&#9;&#9;&#9;&#9;c1.6,0,2.9,0.4,4,1.3c1,0.9,1.6,2.2,1.6,4.2v2.4h-3c0.7-0.7,1-1.6,1-2.6c0-2.2-1.8-3.6-3.9-3.6c-2.1,0-3.8,1.4-3.8,3.6&#xA;&#9;&#9;&#9;&#9;&#9;c0,1,0.3,1.9,1,2.6h-2.5h-0.6h-4h-0.6h-4h-0.6h-4h0h-0.3c-1,0-2.1-0.2-2.8-0.6v-6.3c-1.2,0-2.2,1-2.2,2.2v4.1&#xA;&#9;&#9;&#9;&#9;&#9;c-0.8,0.4-1.7,0.6-2.8,0.6c-1,0-2.1-0.2-2.8-0.6v-6.3c-1.2,0-2.2,1-2.2,2.2v4.1c-0.8,0.4-1.7,0.6-2.8,0.6H340h-4v0H333v-6&#xA;&#9;&#9;&#9;&#9;&#9;c-0.9-0.5-2.5-1-4-1c-3,0-5,1.8-5,4.6S326.1,252.9,329.3,252.9z M375.2,246.4c1.1,0,1.9,0.8,1.9,2c0,1.3-0.6,2.1-1.9,2.3&#xA;&#9;&#9;&#9;&#9;&#9;c-1.2-0.2-1.9-1.1-1.9-2.3C373.3,247.2,374.1,246.4,375.2,246.4z M328.8,245.7c0.7,0,1.4,0.1,2,0.5v4.5H329&#xA;&#9;&#9;&#9;&#9;&#9;c-1.7,0-2.8-0.8-2.8-2.5C326.2,246.5,327.3,245.7,328.8,245.7z" class="st2"/>
				<path d="M327.3,242.1c0.7,0,1.3-0.6,1.3-1.3c0-0.7-0.6-1.3-1.3-1.3c-0.7,0-1.3,0.6-1.3,1.3&#xA;&#9;&#9;&#9;&#9;&#9;C325.9,241.5,326.5,242.1,327.3,242.1z" class="st2"/>
				<path d="M346.2,240.7h-1c-0.8,0-1.1-0.3-1.1-0.8c0-0.4,0.3-0.7,0.7-0.7c0.2,0,0.4,0.1,0.6,0.2l0.8-0.8&#xA;&#9;&#9;&#9;&#9;&#9;c-0.3-0.3-0.9-0.6-1.5-0.6c-1,0-1.7,0.7-1.7,1.6c0,0.4,0.1,0.8,0.4,1.1h-0.9v1.4h3.8V240.7z" class="st2"/>
				<path d="M352.5,255.5c0,0.7,0.6,1.3,1.3,1.3s1.3-0.5,1.3-1.3s-0.6-1.3-1.3-1.3S352.5,254.8,352.5,255.5z" class="st2"/>
				<path d="M348.9,255.5c0,0.7,0.6,1.3,1.3,1.3c0.7,0,1.3-0.6,1.3-1.3c0-0.7-0.6-1.3-1.3-1.3&#xA;&#9;&#9;&#9;&#9;&#9;C349.5,254.2,348.9,254.8,348.9,255.5z" class="st2"/>
				<path d="M396.4,250.7v-11.1c-1.2,0-2.2,1-2.2,2.2v11.1C395.4,252.9,396.4,251.9,396.4,250.7z" class="st2"/>
				<path d="M138.7,262.3c0,0.7,0.6,1.3,1.3,1.3c0.7,0,1.3-0.6,1.3-1.3c0-0.7-0.6-1.3-1.3-1.3&#xA;&#9;&#9;&#9;&#9;&#9;C139.3,261,138.7,261.6,138.7,262.3z" class="st2"/>
				<path d="M135.1,262.3c0,0.7,0.6,1.3,1.3,1.3c0.7,0,1.3-0.6,1.3-1.3c0-0.7-0.6-1.3-1.3-1.3&#xA;&#9;&#9;&#9;&#9;&#9;C135.7,261,135.1,261.6,135.1,262.3z" class="st2"/>
				<path d="M138.4,274.5h6.5h0c1.4,0,2.7-0.3,3.9-1c1.1,0.6,2.3,1,3.7,1c0,0,0.1,0,0.1,0c0,0,0,0,0.1,0h0h4.6h5.3h0&#xA;&#9;&#9;&#9;&#9;&#9;c1,0,1.9-0.1,2.8-0.4c0.9-0.3,1.6-0.6,2.2-0.9h0v-7.8c-1.2,0-2.2,1-2.2,2.2v4.2c-0.6,0.3-1.7,0.5-2.8,0.5h-0.3h-4.7H157h-4h0&#xA;&#9;&#9;&#9;&#9;&#9;h-0.3c-1,0-2.1-0.2-2.8-0.6v-6.3c-1.2,0-2.2,1-2.2,2.2v4.1c-0.7,0.4-1.6,0.6-2.6,0.6h-2.9v-6c-0.9-0.5-2.5-1-4-1&#xA;&#9;&#9;&#9;&#9;&#9;c-3,0-5,1.8-5,4.6C133.2,272.7,135.3,274.5,138.4,274.5z M138,267.3c0.7,0,1.4,0.1,2,0.5v4.5h-1.9c-1.7,0-2.8-0.8-2.8-2.5&#xA;&#9;&#9;&#9;&#9;&#9;C135.4,268.1,136.5,267.3,138,267.3z" class="st2"/>
				<path d="M150.7,278.4c0.7,0,1.3-0.5,1.3-1.3s-0.6-1.3-1.3-1.3c-0.7,0-1.3,0.6-1.3,1.3&#xA;&#9;&#9;&#9;&#9;&#9;C149.4,277.8,149.9,278.4,150.7,278.4z" class="st2"/>
				<path d="M147.1,275.8c-0.7,0-1.3,0.6-1.3,1.3c0,0.7,0.6,1.3,1.3,1.3c0.7,0,1.3-0.6,1.3-1.3&#xA;&#9;&#9;&#9;&#9;&#9;C148.4,276.4,147.8,275.8,147.1,275.8z" class="st2"/>
				<path d="M166.4,261.1c-0.7,0-1.3,0.6-1.3,1.3c0,0.7,0.6,1.3,1.3,1.3c0.7,0,1.3-0.6,1.3-1.3&#xA;&#9;&#9;&#9;&#9;&#9;C167.7,261.7,167.2,261.1,166.4,261.1z" class="st2"/>
				<path d="M171.9,273.5c1,0.6,2.4,0.9,3.9,1c0,0,0.1,0,0.2,0c0,0,0,0,0,0h0h0h4.5c0,0,0,0,0,0c0,0,0,0,0,0h3.8&#xA;&#9;&#9;&#9;&#9;&#9;c1.6,0,3.4-0.3,4.7-0.7c0.9,0.5,1.9,0.7,2.9,0.7c0,0,0.1,0,0.2,0c0,0,0,0,0.1,0h0h4.6h0c1.1,0,2.2-0.3,3.2-0.8&#xA;&#9;&#9;&#9;&#9;&#9;c0.9,1.1,2.1,1.7,3.6,1.7l0,0c2.7,0,4.6-2,4.6-4.7c0-2.7-1.9-4.7-4.6-4.7c-2.7,0-4.6,2-4.6,4.7c0,0.4,0,0.8,0.1,1.2&#xA;&#9;&#9;&#9;&#9;&#9;c-0.6,0.3-1.4,0.4-2.4,0.4h-0.3h-4.4c-0.7,0-1.5-0.2-2-0.5v-0.9c-0.1-2.7-1.3-3.6-4.5-4.5l-1.1-0.3l3.7-2.8&#xA;&#9;&#9;&#9;&#9;&#9;c0.8-0.6,0.9-1.7,0.3-2.5l-6.6,5l0.2,0.8c0.2,0.6,0.6,1.1,1.2,1.2l1.3,0.3c2.8,0.8,3.3,1.2,3.4,2.8v0.7c-0.8,0.3-2,0.6-3.3,0.6&#xA;&#9;&#9;&#9;&#9;&#9;h-3.8h-0.6h-4l0,0h-0.3c-1,0-2.1-0.2-2.8-0.6v-10.4c-1.2,0-2.2,1-2.2,2.2v8.6C171.1,272.8,171.3,273.2,171.9,273.5z M203.6,268&#xA;&#9;&#9;&#9;&#9;&#9;c1.5,0,2.5,1.1,2.5,2.6c0,1.5-1,2.6-2.5,2.6c-1.5,0-2.4-1.1-2.4-2.6C201.1,269.1,202.1,268,203.6,268z" class="st2"/>
				<path d="M233.7,277.1c0-0.7-0.6-1.3-1.3-1.3c-0.7,0-1.3,0.6-1.3,1.3c0,0.7,0.6,1.3,1.3,1.3&#xA;&#9;&#9;&#9;&#9;&#9;C233.1,278.4,233.7,277.9,233.7,277.1z" class="st2"/>
				<path d="M230.1,277.1c0-0.7-0.6-1.3-1.3-1.3c-0.7,0-1.3,0.6-1.3,1.3c0,0.7,0.6,1.3,1.3,1.3&#xA;&#9;&#9;&#9;&#9;&#9;C229.6,278.4,230.1,277.9,230.1,277.1z" class="st2"/>
				<path d="M231.7,265.4c-1.2,0-2.2,1-2.2,2.2v4.1c-0.8,0.4-1.7,0.6-2.8,0.6h-0.3h-4v0h-3.1v-5.7c-1.3-0.7-2.7-1-4-1&#xA;&#9;&#9;&#9;&#9;&#9;c-3,0-5,1.9-5,4.5s1.9,4.4,5.2,4.4h1.6c-0.1,1.8-1.1,2.7-3.1,2.7c-0.4,0-0.7,0-1.1-0.1c-1.1-0.1-2,0.6-2.2,1.6&#xA;&#9;&#9;&#9;&#9;&#9;c1,0.3,2.2,0.5,3.2,0.5c3.1,0,5.2-1.5,5.4-4.7h2.8h0h4.5h0c1.4,0,2.7-0.3,3.9-1c1.1,0.6,2.4,1,3.7,1c0,0,0.1,0,0.1,0&#xA;&#9;&#9;&#9;&#9;&#9;c0,0,0.1,0,0.1,0h0c0,0,0,0,0,0c0,0,0,0,0,0h12h0c2,0,3.9-0.8,5-1.9l0,0v-11.4c-1.2,0-2.2,1-2.2,2.2v8.3&#xA;&#9;&#9;&#9;&#9;&#9;c-0.7,0.4-1.7,0.6-2.7,0.6h-1c-0.6,0-0.9,0-1.1-0.2c-0.7-0.7-1.1-1.7-1.5-3.2c-0.8-2.9-1.7-4-4.3-4c-1.3,0-2.5,0.4-3.6,1.3&#xA;&#9;&#9;&#9;&#9;&#9;l0.1,0.1c0.6,0.7,1.6,1,2.5,0.8c0.3-0.1,0.6-0.1,0.9-0.1c1.7,0.1,1.9,0.7,2.5,2.8c0.3,1.2,0.6,1.9,1.3,2.6h-7.5h0h-0.3&#xA;&#9;&#9;&#9;&#9;&#9;c-1,0-2.1-0.2-2.8-0.6V265.4z M217.2,272.3L217.2,272.3h-1.9c-1.6,0-2.7-0.8-2.7-2.3s1.1-2.3,2.7-2.3c0.7,0,1.3,0.1,2,0.5V272.3&#xA;&#9;&#9;&#9;&#9;&#9;z" class="st2"/>
				<path d="M238.3,277.1c0,0.7,0.6,1.3,1.3,1.3c0.7,0,1.3-0.6,1.3-1.3s-0.6-1.3-1.3-1.3&#xA;&#9;&#9;&#9;&#9;&#9;C238.8,275.8,238.3,276.4,238.3,277.1z" class="st2"/>
				<path d="M257.3,272.3v-11.1c-1.2,0-2.2,1-2.2,2.2v11.1C256.3,274.5,257.3,273.5,257.3,272.3z" class="st2"/>
				<path d="M271.2,264.7c0,0.7,0.6,1.3,1.3,1.3c0.7,0,1.3-0.6,1.3-1.3c0-0.7-0.6-1.3-1.3-1.3&#xA;&#9;&#9;&#9;&#9;&#9;C271.8,263.4,271.2,264,271.2,264.7z" class="st2"/>
				<path d="M274.8,264.7c0,0.7,0.6,1.3,1.3,1.3c0.7,0,1.3-0.6,1.3-1.3c0-0.7-0.6-1.3-1.3-1.3&#xA;&#9;&#9;&#9;&#9;&#9;C275.4,263.4,274.8,264,274.8,264.7z" class="st2"/>
				<path d="M277.6,274.5c2.6,0,4.7-0.5,5.9-1.1v-8c-1.2,0-2.2,1-2.2,2.2v4.2c-0.7,0.3-1.9,0.5-3.4,0.5h-7.4&#xA;&#9;&#9;&#9;&#9;&#9;c-2.2,0-3.3-0.9-3.3-2.8c0-0.6,0.1-1.3,0.3-2.2l0,0c-1.2-0.2-2.3,0.6-2.4,1.8c0,0.3,0,0.6,0,1c0,3.2,1.9,4.4,5.3,4.4H277.6z" class="st2"/>
				<path d="M310.2,272.3h-0.3h-4h-0.6h-4h-0.6h-4h-0.6h-4l0,0H292c-1,0-2.1-0.2-2.8-0.6v-10.4c-1.2,0-2.2,1-2.2,2.2&#xA;&#9;&#9;&#9;&#9;&#9;v8.6c0,0.8,0.2,1.1,0.9,1.5c1,0.6,2.4,0.9,3.9,1c0,0,0.1,0,0.2,0c0,0,0,0,0.1,0h0h4.6h4.6h4.6h4.6h0c1.1,0,2.2-0.3,3.2-0.8&#xA;&#9;&#9;&#9;&#9;&#9;c0.9,1.1,2.1,1.7,3.6,1.7l0,0c2.7,0,4.6-2,4.6-4.7c0-2.7-1.9-4.7-4.6-4.7c-2.7,0-4.6,2-4.6,4.7c0,0.4,0,0.8,0.1,1.2&#xA;&#9;&#9;&#9;&#9;&#9;C311.9,272.1,311.1,272.3,310.2,272.3z M317,268c1.5,0,2.5,1.1,2.5,2.6c0,1.5-1,2.6-2.5,2.6c-1.5,0-2.4-1.1-2.4-2.6&#xA;&#9;&#9;&#9;&#9;&#9;C314.5,269.1,315.5,268,317,268z" class="st2"/>
				<path d="M329,274.5h1.6c-0.1,1.8-1.1,2.7-3.1,2.7c-0.4,0-0.7,0-1.1-0.1c-1.1-0.1-2,0.6-2.2,1.6&#xA;&#9;&#9;&#9;&#9;&#9;c1,0.3,2.2,0.5,3.2,0.5c3.1,0,5.2-1.5,5.4-4.7h2.8h0c1.4,0,2.7-0.3,3.9-1c1.1,0.6,2.3,1,3.7,1v0h0.2h0h12.3h0.2h4.3h0&#xA;&#9;&#9;&#9;&#9;&#9;c1.1,0,2.2-0.3,3.1-0.8c0.8,1,2.1,1.7,3.6,1.7s2.8-0.6,3.6-1.7c0.9,0.5,1.9,0.7,2.9,0.8c0,0,0.1,0,0.1,0c0,0,0.1,0,0.1,0h0&#xA;&#9;&#9;&#9;&#9;&#9;c0,0,0,0,0,0c0,0,0,0,0,0h0c2,0,3.9-0.8,5-1.9l0,0v-11.4c-1.2,0-2.2,1-2.2,2.2v8.3c-0.7,0.4-1.8,0.6-2.8,0.6&#xA;&#9;&#9;&#9;&#9;&#9;c-0.9,0-1.7-0.1-2.3-0.4c0.1-0.3,0.1-0.7,0.1-1.2c0-2.7-1.9-4.7-4.6-4.7s-4.6,2-4.6,4.7c0,0.4,0,0.8,0.1,1.2&#xA;&#9;&#9;&#9;&#9;&#9;c-0.6,0.3-1.4,0.4-2.3,0.4h-0.3h-4l0,0h-4c1.3-0.9,2.2-2.4,2.2-3.9c0-2.3-1.8-3.5-4.6-3.5c-1.6,0-3.2,0.4-4.8,1.2l-0.4,1.7&#xA;&#9;&#9;&#9;&#9;&#9;l2.9,4.6h-3.6h0h-0.3c-1,0-2.1-0.2-2.8-0.6v-10.4c-1.2,0-2.2,1-2.2,2.2v8.3c-0.7,0.4-1.6,0.6-2.6,0.6h-2.9v-5.7&#xA;&#9;&#9;&#9;&#9;&#9;c-1.3-0.7-2.7-1-4-1c-3,0-5,1.9-5,4.5S325.7,274.5,329,274.5z M366.9,268c1.5,0,2.5,1.1,2.5,2.6c0,1.5-1,2.6-2.5,2.6&#xA;&#9;&#9;&#9;&#9;&#9;s-2.4-1.1-2.4-2.6C364.5,269.1,365.5,268,366.9,268z M346.7,267.5c0.9-0.4,1.7-0.6,2.6-0.6c1.5,0,2.5,0.7,2.5,1.9&#xA;&#9;&#9;&#9;&#9;&#9;c0,1.3-1.1,2.5-2.7,3.1L346.7,267.5z M328.6,267.6c0.7,0,1.3,0.1,2,0.5v4.2h0h-1.9c-1.6,0-2.7-0.8-2.7-2.3&#xA;&#9;&#9;&#9;&#9;&#9;S327,267.6,328.6,267.6z" class="st2"/>
				<path d="M382.4,274.5c1.2,0,2.2-1,2.2-2.2v-11.1c-1.2,0-2.2,1-2.2,2.2V274.5z" class="st2"/>
				<path d="M387.5,270.1c0,2.6,1.9,4.4,5.2,4.4h1.6c-0.1,1.8-1.1,2.7-3.1,2.7c-1.1,0-2.2-0.2-2.9-0.5l-0.4,2.1&#xA;&#9;&#9;&#9;&#9;&#9;c1,0.3,2.2,0.5,3.2,0.5c3.3,0,5.4-1.7,5.4-5.4v0v-7.3c-1.3-0.7-2.7-1-4-1C389.4,265.6,387.5,267.4,387.5,270.1z M392.3,267.6&#xA;&#9;&#9;&#9;&#9;&#9;c0.7,0,1.3,0.1,2,0.5v4.2h0h-1.9c-1.6,0-2.7-0.8-2.7-2.3S390.7,267.6,392.3,267.6z" class="st2"/>
				<path d="M140.4,292.5c0.7,0,1.5,0.2,2.1,0.5c0.7,0.3,1.6,0.2,2.2-0.4h0l0.4-0.5c-1.3-1.2-3-1.8-4.8-1.8&#xA;&#9;&#9;&#9;&#9;&#9;c-3.6-0.1-6.9,2.7-6.9,6.5c-0.1,3.5,3.1,6.5,6.7,6.5c2,0,3.9-0.7,5.4-1.9v-5.2h-3.4c-1,0-1.9,0.8-1.9,1.9h3v2.1&#xA;&#9;&#9;&#9;&#9;&#9;c-0.8,0.6-1.9,0.9-3.2,0.9c-2.4,0-4.3-1.9-4.3-4.3C136.1,294.3,138.1,292.5,140.4,292.5z" class="st2"/>
				<path d="M153,294c-2.7,0-4.7,2.1-4.7,4.7c0,2.6,2,4.7,4.8,4.7c1.5,0,2.9-0.6,4-1.5c-0.6-0.6-1.5-0.8-2.3-0.5&#xA;&#9;&#9;&#9;&#9;&#9;c-0.5,0.2-1,0.3-1.7,0.3c-1.5,0-2.4-0.8-2.7-2.3h7.3v-0.7C157.7,296,155.7,294,153,294z M155.6,298h-5.2&#xA;&#9;&#9;&#9;&#9;&#9;c0.2-1.4,1.1-2.3,2.6-2.3c0.7,0,1.4,0.2,1.9,0.7C155.3,296.8,155.6,297.3,155.6,298L155.6,298z" class="st2"/>
				<path d="M165.8,294c-1.3,0-2.6,0.5-3.7,1.3v-1.1h0c-1.2,0-2.2,1-2.2,2.2v4.6c0,1.2,1,2.2,2.2,2.2h0v-6.3&#xA;&#9;&#9;&#9;&#9;&#9;c0.9-0.8,1.9-1.2,2.9-1.1c1.1,0,1.9,1,1.9,2v3.2c0,1.2,1,2.2,2.2,2.2v-6C169.1,295.2,167.8,294,165.8,294z" class="st2"/>
				<path d="M176,303.3c1.5,0,2.9-0.6,4-1.5c-0.6-0.6-1.5-0.8-2.3-0.5c-0.5,0.2-1,0.3-1.7,0.3c-1.5,0-2.4-0.8-2.7-2.3&#xA;&#9;&#9;&#9;&#9;&#9;h7.3v-0.7c0-2.7-2-4.7-4.7-4.7c-2.7,0-4.7,2.1-4.7,4.7C171.2,301.2,173.2,303.3,176,303.3z M176,295.7c0.7,0,1.4,0.2,1.9,0.7&#xA;&#9;&#9;&#9;&#9;&#9;c0.5,0.4,0.7,1,0.7,1.6v0h-5.2C173.6,296.5,174.5,295.7,176,295.7z" class="st2"/>
				<path d="M187.2,296.1c0.9-0.3,1.5-1,1.5-2V294c-1.3,0-2.7,0.7-3.7,1.9v-1.7h-0.2c-1.1,0-2,0.9-2,2v7h0.2&#xA;&#9;&#9;&#9;&#9;&#9;c1.1,0,2-0.9,2-2v-3.6C185.7,296.9,186.4,296.4,187.2,296.1L187.2,296.1z" class="st2"/>
				<path d="M198.4,297.3c0-2.1-1.4-3.4-3.8-3.4c-1.5,0-2.9,0.4-4.2,1.2c0.4,0.8,1.3,1.1,2.1,0.8&#xA;&#9;&#9;&#9;&#9;&#9;c0.5-0.2,1.1-0.3,1.6-0.3c1.4,0,2.2,0.6,2.2,1.8v0.1h-3.1c-2.2,0-3.5,1.1-3.5,2.8s1.3,2.9,3.4,2.9c1.2,0,2.3-0.4,3.2-1.2v1&#xA;&#9;&#9;&#9;&#9;&#9;c1.2,0,2.2-1,2.2-2.2V297.3z M196.2,301c-0.8,0.5-1.6,0.8-2.6,0.8c-1.2,0-1.9-0.5-1.9-1.4c0-0.9,0.7-1.4,1.9-1.4h2.5V301z" class="st2"/>
				<path d="M200.9,303.1c1.2,0,2.2-1,2.2-2.2v-10.4c-1.2,0-2.2,1-2.2,2.2V303.1z" class="st2"/>
				<path d="M220.6,303.1c1.3,0,2.1-1.3,1.6-2.4l-3.7-8.7c-0.4-0.9-1.2-1.4-2.1-1.4c-0.9,0-1.8,0.6-2.1,1.4l-3.7,8.7&#xA;&#9;&#9;&#9;&#9;&#9;c-0.5,1.2,0.4,2.4,1.6,2.4l1.1-2.8h6.1L220.6,303.1L220.6,303.1z M214.1,298.4l2.3-5.5l2.3,5.5H214.1z" class="st2"/>
				<path d="M233.9,300.9v-6.8l0,0h0c-1.2,0-2.2,1-2.2,2.2v4.1c-0.9,0.8-1.9,1.2-2.9,1.1c-1.1,0-1.9-1-1.9-2v-5.3&#xA;&#9;&#9;&#9;&#9;&#9;c-1.2,0-2.2,1-2.2,2.2v3.8c0,2,1.2,3.2,3.3,3.2c1.3,0,2.6-0.5,3.7-1.3v1.2C232.9,303.1,233.9,302.1,233.9,300.9z" class="st2"/>
				<path d="M242.5,302.7c-0.1-0.7-0.8-1.3-1.6-1.2c0,0-0.1,0-0.1,0c-0.9,0-1.6-0.6-1.6-1.6v-4h1.1&#xA;&#9;&#9;&#9;&#9;&#9;c0.8,0,1.4-0.6,1.4-1.4v-0.3h-2.6v-2.5h-0.7c-0.8,0-1.5,0.7-1.5,1.5v1c-0.8,0-1.4,0.6-1.4,1.4v0.3h1.4v4.3c0,2,1.3,3.1,3.1,3.1&#xA;&#9;&#9;&#9;&#9;&#9;C240.9,303.3,241.7,303.1,242.5,302.7L242.5,302.7z" class="st2"/>
				<path d="M250.4,294c-1.3,0-2.6,0.5-3.7,1.3v-4.7h0c-1.2,0-2.2,1-2.2,2.2v8.2c0,1.2,1,2.2,2.2,2.2v-6.3&#xA;&#9;&#9;&#9;&#9;&#9;c0.9-0.8,1.9-1.2,2.9-1.1c1.1,0,1.9,1,1.9,2v3.2c0,1.2,1,2.2,2.2,2.2v-6C253.7,295.2,252.4,294,250.4,294z" class="st2"/>
				<polygon points="253.7,303.1 253.7,303.1 253.7,303.1" class="st2"/>
				<path d="M260.8,294c-2.8,0-5,2-5,4.7c0,2.6,2.2,4.7,5,4.7c2.8,0.1,5.1-2.1,5-4.7C265.9,296,263.6,293.9,260.8,294z&#xA;&#9;&#9;&#9;&#9;&#9; M260.8,301.4c-1.6,0-2.8-1.2-2.8-2.8s1.2-2.8,2.8-2.8s2.9,1.2,2.9,2.8C263.7,300.2,262.4,301.4,260.8,301.4z" class="st2"/>
				<path d="M270.3,295.8v-1.7c-1.2,0-2.2,1-2.2,2.2v6.8c1.2,0,2.2-1,2.2-2.2v-3.4c0.6-0.7,1.4-1.2,2.2-1.4h0&#xA;&#9;&#9;&#9;&#9;&#9;c0.9-0.3,1.5-1,1.5-2V294C272.6,294,271.3,294.6,270.3,295.8z" class="st2"/>
				<path d="M277.9,301v-6.8c-1.2,0-2.2,1-2.2,2.2v6.8C276.9,303.1,277.9,302.2,277.9,301z" class="st2"/>
				<path d="M276.8,293c0.6,0,1.2-0.5,1.2-1.1c0-0.6-0.5-1.1-1.2-1.1s-1.2,0.5-1.2,1.1C275.6,292.5,276.1,293,276.8,293&#xA;&#9;&#9;&#9;&#9;&#9;z" class="st2"/>
				<path d="M284.3,303.3c0.8,0,1.6-0.2,2.4-0.6v0c-0.1-0.7-0.8-1.3-1.6-1.2c0,0-0.1,0-0.1,0c-0.9,0-1.6-0.6-1.6-1.6v-4&#xA;&#9;&#9;&#9;&#9;&#9;h1.1c0.8,0,1.4-0.6,1.4-1.4v-0.3h-2.6v-2.5h-0.8c-0.8,0-1.4,0.6-1.4,1.4v1.1c-0.8,0-1.4,0.6-1.4,1.4v0.3h1.4v4.3&#xA;&#9;&#9;&#9;&#9;&#9;C281.2,302.2,282.5,303.3,284.3,303.3z" class="st2"/>
				<path d="M293.1,304l4-9.9h-0.9c-0.8,0-1.5,0.5-1.8,1.3l-2,5.4l-2.2-5.4c-0.3-0.7-1-1.2-1.8-1.2h-1l4,9.3l-0.1,0.3&#xA;&#9;&#9;&#9;&#9;&#9;c-0.6,1-1.1,1.4-1.9,1.4c-0.1,0-0.1,0-0.2,0c-0.8,0-1.6,0.4-1.9,1.2c0.9,0.3,1.7,0.5,2.4,0.5C291.3,306.8,292.4,305.9,293.1,304&#xA;&#9;&#9;&#9;&#9;&#9;L293.1,304z" class="st2"/>
				<path d="M307.4,292L307.4,292c0.8,0,1.4-0.5,1.6-1.2l0-0.1c-0.6-0.2-1.3-0.3-2-0.3c-1.9,0-3.2,1-3.2,3.1v0.7&#xA;&#9;&#9;&#9;&#9;&#9;c-0.7,0-1.3,0.6-1.3,1.3v0.4h1.3v5.8c0,0.8,0.7,1.5,1.5,1.5h0.7v-7.2h1.3c0.7,0,1.3-0.6,1.3-1.3v-0.4H306l0,0v-0.6&#xA;&#9;&#9;&#9;&#9;&#9;C306,292.5,306.6,292,307.4,292z" class="st2"/>
				<path d="M314.9,294c-2.8,0-5,2-5,4.7c0,2.6,2.2,4.7,5,4.7c2.8,0.1,5.1-2.1,5-4.7C320,296,317.7,293.9,314.9,294z&#xA;&#9;&#9;&#9;&#9;&#9; M314.9,301.4c-1.6,0-2.8-1.2-2.8-2.8s1.2-2.8,2.8-2.8s2.9,1.2,2.9,2.8C317.8,300.2,316.5,301.4,314.9,301.4z" class="st2"/>
				<path d="M324.4,301.1v-3.6c0.6-0.7,1.4-1.2,2.2-1.4h0c0.9-0.3,1.5-1,1.5-2V294c-1.3,0-2.6,0.7-3.7,1.9v-1.7h-0.2&#xA;&#9;&#9;&#9;&#9;&#9;c-1.1,0-2,0.9-2,2v7h0.2C323.5,303.1,324.4,302.2,324.4,301.1z" class="st2"/>
				<path d="M339.7,301.3c-1,0-2.1-0.2-3.1-0.6s-2.2,0-2.8,1c1.6,1.1,3.7,1.7,5.8,1.7c3.2,0,5.2-1.4,5.2-3.9&#xA;&#9;&#9;&#9;&#9;&#9;c-0.1-2.2-1.4-2.9-4.2-3.6l-1.4-0.4c-2-0.5-2.4-0.8-2.4-1.5c0-1,0.9-1.5,2.3-1.5c0.8,0,1.7,0.2,2.6,0.5c1.1,0.3,2.2-0.1,2.7-1.1&#xA;&#9;&#9;&#9;&#9;&#9;l0,0c-1.4-0.8-3.3-1.4-5.1-1.4c-1.5,0-2.7,0.3-3.6,1c-0.9,0.6-1.4,1.5-1.4,2.8c0.1,2,1.3,2.8,4.3,3.5l1.4,0.4&#xA;&#9;&#9;&#9;&#9;&#9;c1.8,0.4,2.3,0.7,2.3,1.6C342.2,300.7,341.2,301.3,339.7,301.3z" class="st2"/>
				<path d="M353.8,296.1v4.3c-0.9,0.8-1.9,1.2-2.9,1.1c-1.1,0-1.9-1-1.9-2v-5.3h-0.2c-1.1,0-2,0.9-2,1.9v4&#xA;&#9;&#9;&#9;&#9;&#9;c0,2,1.2,3.2,3.3,3.2c1.3,0,2.6-0.5,3.7-1.3v1.2h0.2c1.1,0,2-0.9,2-1.9v-7h-0.2C354.7,294.2,353.8,295,353.8,296.1z" class="st2"/>
				<path d="M363.1,296.1c0.8-0.3,1.4-1,1.4-1.9V294c-1.3,0-2.6,0.7-3.7,1.9v-1.7h-0.2c-1.1,0-2,0.9-2,1.9v7h0.2&#xA;&#9;&#9;&#9;&#9;&#9;c1.1,0,2-0.9,2-1.9v-3.6C361.5,296.8,362.3,296.3,363.1,296.1L363.1,296.1z" class="st2"/>
				<path d="M375.5,294.2h-1c-0.8,0-1.5,0.5-1.8,1.2l-2.2,5.6l-2.2-5.6c-0.3-0.7-1-1.2-1.8-1.2h-1l3.7,9h2.7&#xA;&#9;&#9;&#9;&#9;&#9;L375.5,294.2L375.5,294.2z" class="st2"/>
				<polygon points="385.9,299.3 385.9,299.3 385.9,299.3" class="st2"/>
				<path d="M381.2,294c-2.7,0-4.7,2.1-4.7,4.7c0,2.6,2,4.7,4.8,4.7c1.5,0,2.9-0.6,4-1.5l-1.2-1.1c-0.7,0.6-1.6,1-2.7,1&#xA;&#9;&#9;&#9;&#9;&#9;c-1.5,0-2.4-0.8-2.7-2.3h7.3v-0.7C385.9,296,383.9,294,381.2,294z M383.8,298h-5.2c0.2-1.4,1.1-2.3,2.6-2.3&#xA;&#9;&#9;&#9;&#9;&#9;c0.7,0,1.4,0.2,1.9,0.7C383.5,296.8,383.8,297.3,383.8,298L383.8,298z" class="st2"/>
				<path d="M396.6,294.1h-0.9c-0.8,0-1.5,0.5-1.8,1.3l-2,5.4l-2.2-5.4c-0.3-0.7-1-1.2-1.8-1.2h-1l4,9.3l-0.1,0.3&#xA;&#9;&#9;&#9;&#9;&#9;c-0.6,1-1.1,1.4-1.9,1.4c-0.1,0-0.1,0-0.2,0c-0.8,0-1.6,0.4-1.9,1.2c0.9,0.3,1.7,0.5,2.4,0.5c1.7,0,2.8-0.9,3.6-2.8l0,0&#xA;&#9;&#9;&#9;&#9;&#9;L396.6,294.1z" class="st2"/>
				<path d="M138.1,314.6c-1.5,0-2.9,0.4-4.2,1.2c0.4,0.8,1.3,1.1,2.1,0.8c0.5-0.2,1.1-0.3,1.6-0.3&#xA;&#9;&#9;&#9;&#9;&#9;c1.4,0,2.2,0.6,2.2,1.8v0.1h-3.1c-2.2,0-3.5,1.1-3.5,2.8s1.3,2.9,3.4,2.9c1.2,0,2.3-0.4,3.2-1.2v1h0.5c0.9,0,1.6-0.7,1.6-1.6&#xA;&#9;&#9;&#9;&#9;&#9;V318C142,315.8,140.6,314.6,138.1,314.6z M139.8,321.6c-0.8,0.5-1.6,0.8-2.6,0.8c-1.2,0-1.9-0.5-1.9-1.4s0.7-1.4,1.9-1.4h2.5&#xA;&#9;&#9;&#9;&#9;&#9;V321.6z" class="st2"/>
				<path d="M150.4,314.6c-1.3,0-2.6,0.5-3.7,1.3v-1.1h0c-1.2,0-2.2,1-2.2,2.2v4.6c0,1.2,1,2.2,2.2,2.2h0v-6.3&#xA;&#9;&#9;&#9;&#9;&#9;c0.9-0.8,1.9-1.2,2.9-1.1c1.1,0,1.9,1,1.9,2v3.2c0,1.2,1,2.2,2.2,2.2v-6C153.7,315.8,152.4,314.6,150.4,314.6z" class="st2"/>
				<path d="M163.1,313.3v2.5c-0.7-0.8-1.7-1.2-3-1.2c-2.4-0.1-4.4,2.1-4.3,4.7c0,2.6,1.9,4.7,4.3,4.7&#xA;&#9;&#9;&#9;&#9;&#9;c1.2,0,2.3-0.5,3-1.2v1.1c1.2,0,2.2-1,2.2-2.2v-10.4C164.1,311.2,163.1,312.1,163.1,313.3z M163.1,320.8&#xA;&#9;&#9;&#9;&#9;&#9;c-0.5,0.8-1.4,1.2-2.5,1.2c-0.8,0-1.4-0.3-1.9-0.8c-0.5-0.5-0.7-1.2-0.7-2c0-1.6,1.1-2.8,2.6-2.8c1.1,0,2,0.5,2.5,1.2V320.8z" class="st2"/>
				<path d="M179.2,318.7h3v2.1c-0.8,0.6-1.9,0.9-3.2,0.9c-2.4,0-4.3-1.9-4.3-4.3c0-2.5,2-4.3,4.4-4.3&#xA;&#9;&#9;&#9;&#9;&#9;c0.7,0,1.5,0.2,2.1,0.5c0.7,0.3,1.6,0.2,2.2-0.4h0l0.4-0.5c-1.3-1.2-3-1.8-4.8-1.8c-3.6-0.1-6.9,2.7-6.9,6.5&#xA;&#9;&#9;&#9;&#9;&#9;c-0.1,3.5,3.1,6.5,6.7,6.5c2,0,3.9-0.7,5.4-1.9v-5.2h-3.4C180.1,316.8,179.2,317.6,179.2,318.7z" class="st2"/>
				<path d="M191.7,314.6c-2.7,0-4.7,2.1-4.7,4.7s2,4.7,4.8,4.7c1.5,0,2.9-0.6,4-1.5c-0.6-0.6-1.5-0.8-2.3-0.5&#xA;&#9;&#9;&#9;&#9;&#9;c-0.5,0.2-1,0.3-1.7,0.3c-1.5,0-2.4-0.8-2.7-2.3h7.3v-0.7C196.5,316.6,194.4,314.6,191.7,314.6z M194.3,318.6h-5.2&#xA;&#9;&#9;&#9;&#9;&#9;c0.2-1.4,1.1-2.3,2.6-2.3c0.7,0,1.4,0.2,1.9,0.7C194.1,317.4,194.3,317.9,194.3,318.6L194.3,318.6z" class="st2"/>
				<path d="M203.2,314.6c-2.8,0-5,2-5,4.7c0,2.6,2.2,4.7,5,4.7c2.8,0.1,5.1-2.1,5-4.7&#xA;&#9;&#9;&#9;&#9;&#9;C208.3,316.6,206,314.5,203.2,314.6z M203.2,322.1c-1.6,0-2.8-1.2-2.8-2.8s1.2-2.8,2.8-2.8s2.9,1.2,2.9,2.8&#xA;&#9;&#9;&#9;&#9;&#9;S204.9,322.1,203.2,322.1z" class="st2"/>
				<path d="M214.8,318.5l-1-0.3c-1.2-0.3-1.6-0.5-1.6-1.1c0-0.7,0.5-1,1.5-1c0.5,0,1.2,0.1,1.8,0.3&#xA;&#9;&#9;&#9;&#9;&#9;c0.8,0.2,1.6-0.1,2-0.9l0,0c-1-0.6-2.4-1-3.7-1c-2.3,0-3.6,1-3.6,2.8c0,0.6,0.2,1.1,0.6,1.5c0.4,0.4,1.2,0.7,2.3,1l1.1,0.3&#xA;&#9;&#9;&#9;&#9;&#9;c1.1,0.3,1.4,0.5,1.4,1.1c0,0.7-0.5,1.1-1.6,1.1c-0.7,0-1.5-0.1-2.2-0.4c-0.8-0.3-1.7,0-2.1,0.8c1.2,0.8,2.7,1.2,4.2,1.2&#xA;&#9;&#9;&#9;&#9;&#9;c2.4,0,3.8-1,3.8-2.8C217.7,319.7,216.9,319,214.8,318.5z" class="st2"/>
				<path d="M225.2,314.6c-1.2,0-2.3,0.5-3,1.2v-1c-1.2,0-2.2,1-2.2,2.2v10.3c1.2,0,2.2-1,2.2-2.2v-2.4&#xA;&#9;&#9;&#9;&#9;&#9;c0.7,0.8,1.7,1.2,3,1.2v0c2.4,0.1,4.4-2.1,4.3-4.7C229.6,316.7,227.6,314.5,225.2,314.6z M226.6,321.3c-0.5,0.5-1.1,0.8-1.9,0.8&#xA;&#9;&#9;&#9;&#9;&#9;c-1.1,0-2-0.5-2.5-1.2v-3.2c0.5-0.8,1.4-1.2,2.5-1.2c0.8,0,1.4,0.3,1.9,0.8c0.5,0.5,0.7,1.2,0.7,2&#xA;&#9;&#9;&#9;&#9;&#9;C227.4,320.1,227.1,320.7,226.6,321.3z" class="st2"/>
				<path d="M236.3,314.6c-1.5,0-2.9,0.4-4.2,1.2c0.4,0.8,1.3,1.1,2.1,0.8c0.5-0.2,1.1-0.3,1.6-0.3&#xA;&#9;&#9;&#9;&#9;&#9;c1.4,0,2.2,0.6,2.2,1.8v0.1h-3.1c-2.2,0-3.5,1.1-3.5,2.8s1.3,2.9,3.4,2.9c1.2,0,2.3-0.4,3.2-1.2v1h0.5c0.9,0,1.6-0.7,1.6-1.6&#xA;&#9;&#9;&#9;&#9;&#9;V318C240.1,315.8,238.7,314.6,236.3,314.6z M237.9,321.6c-0.8,0.5-1.6,0.8-2.6,0.8c-1.2,0-1.9-0.5-1.9-1.4s0.7-1.4,1.9-1.4h2.5&#xA;&#9;&#9;&#9;&#9;&#9;V321.6z" class="st2"/>
				<path d="M247.1,322.1c-0.1,0-0.1,0-0.2,0c-0.9,0-1.6-0.6-1.6-1.6v-4h1.1c0.8,0,1.4-0.6,1.4-1.4v-0.3h-2.6v-2.5h-0.8&#xA;&#9;&#9;&#9;&#9;&#9;c-0.8,0-1.4,0.6-1.4,1.4v1.1c-0.8,0-1.4,0.6-1.4,1.4v0.3h1.4v4.3c0,2,1.3,3.1,3.1,3.1c0.8,0,1.6-0.2,2.4-0.6v0l0-0.1&#xA;&#9;&#9;&#9;&#9;&#9;C248.4,322.5,247.8,322,247.1,322.1z" class="st2"/>
				<path d="M250.7,316.9v6.8c1.2,0,2.2-1,2.2-2.2v-6.8C251.7,314.8,250.7,315.7,250.7,316.9z" class="st2"/>
				<path d="M251.8,311.4c-0.7,0-1.2,0.5-1.2,1.1s0.5,1.1,1.2,1.1c0.6,0,1.2-0.5,1.2-1.1&#xA;&#9;&#9;&#9;&#9;&#9;C253,311.9,252.5,311.4,251.8,311.4z" class="st2"/>
				<path d="M260.1,314.6c-1.5,0-2.9,0.4-4.2,1.2c0.4,0.8,1.3,1.1,2.1,0.8c0.5-0.2,1.1-0.3,1.6-0.3&#xA;&#9;&#9;&#9;&#9;&#9;c1.4,0,2.2,0.6,2.2,1.8v0.1h-3.1c-2.2,0-3.5,1.1-3.5,2.8s1.3,2.9,3.4,2.9c1.2,0,2.3-0.4,3.2-1.2v1h0.5c0.9,0,1.6-0.7,1.6-1.6&#xA;&#9;&#9;&#9;&#9;&#9;V318C264,315.8,262.6,314.6,260.1,314.6z M261.8,321.6c-0.8,0.5-1.6,0.8-2.6,0.8c-1.2,0-1.9-0.5-1.9-1.4s0.7-1.4,1.9-1.4h2.5&#xA;&#9;&#9;&#9;&#9;&#9;V321.6z" class="st2"/>
				<path d="M266.5,313.4v10.4c1.2,0,2.2-1,2.2-2.2v-10.4C267.5,311.2,266.5,312.1,266.5,313.4z" class="st2"/>
				<path d="M276.2,313.5v10.2c1.3,0,2.3-1,2.3-2.3v-10.2C277.3,311.2,276.2,312.2,276.2,313.5z" class="st2"/>
				<path d="M287.5,314.6c-1.3,0-2.6,0.5-3.7,1.3v-1.1h0c-1.2,0-2.2,1-2.2,2.2v4.6c0,1.2,1,2.2,2.2,2.2h0v-6.3&#xA;&#9;&#9;&#9;&#9;&#9;c0.9-0.8,1.9-1.2,2.9-1.1c1.1,0,1.9,1,1.9,2v3.2c0,1.2,1,2.2,2.2,2.2v-6C290.8,315.8,289.6,314.6,287.5,314.6z" class="st2"/>
				<path d="M293.8,314.1v0.7c-0.7,0-1.3,0.6-1.3,1.3v0.4h1.3v6c0,0.7,0.6,1.2,1.2,1.2h1v-7.2h1.3&#xA;&#9;&#9;&#9;&#9;&#9;c0.7,0,1.3-0.6,1.3-1.3v-0.4H296h0v-0.6c0-1,0.6-1.5,1.5-1.5c0,0,0.1,0,0.1,0c0.7,0,1.2-0.4,1.4-1l0.1-0.3&#xA;&#9;&#9;&#9;&#9;&#9;c-0.6-0.2-1.3-0.3-2-0.3C295.1,311,293.8,312,293.8,314.1z" class="st2"/>
				<path d="M304.9,314.6c-2.8,0-5,2-5,4.7c0,2.6,2.2,4.7,5,4.7c2.8,0.1,5.1-2.1,5-4.7&#xA;&#9;&#9;&#9;&#9;&#9;C310,316.6,307.7,314.5,304.9,314.6z M304.9,322.1c-1.6,0-2.8-1.2-2.8-2.8s1.2-2.8,2.8-2.8c1.6,0,2.9,1.2,2.9,2.8&#xA;&#9;&#9;&#9;&#9;&#9;S306.5,322.1,304.9,322.1z" class="st2"/>
				<path d="M314.4,316.4v-1.7h-0.2c-1.1,0-2,0.9-2,2v7h0.2c1.1,0,2-0.9,2-2v-3.6c0.6-0.7,1.4-1.2,2.2-1.4h0&#xA;&#9;&#9;&#9;&#9;&#9;c0.9-0.3,1.5-1,1.5-2v-0.2C316.8,314.6,315.4,315.2,314.4,316.4z" class="st2"/>
				<path d="M331.9,314.6L331.9,314.6c-1.4,0-2.6,0.4-3.8,1.5c-0.5-1-1.5-1.5-2.7-1.5s-2.4,0.5-3.5,1.4v-1.2&#xA;&#9;&#9;&#9;&#9;&#9;c-1.2,0-2.2,1-2.2,2.2v4.6c0,1.2,1,2.2,2.2,2.2h0v-6.4c0.9-0.7,1.6-1,2.5-1c1.2,0,1.9,0.7,1.9,2v3.2c0,1.2,1,2.2,2.2,2.2v-5.2&#xA;&#9;&#9;&#9;&#9;&#9;c0-0.4,0-0.9-0.1-1.3c0.8-0.6,1.7-1,2.7-1c1.2,0,1.9,0.7,1.9,2v3.2c0,1.2,1,2.2,2.2,2.2h0v-6&#xA;&#9;&#9;&#9;&#9;&#9;C335.1,315.7,333.8,314.6,331.9,314.6z" class="st2"/>
				<path d="M342.1,314.6c-1.5,0-2.9,0.4-4.2,1.2c0.4,0.8,1.3,1.1,2.1,0.8c0.5-0.2,1.1-0.3,1.6-0.3&#xA;&#9;&#9;&#9;&#9;&#9;c1.4,0,2.2,0.6,2.2,1.8v0.1h-3.1c-2.2,0-3.5,1.1-3.5,2.8s1.3,2.9,3.4,2.9c1.2,0,2.3-0.4,3.2-1.2v1h0.5c0.9,0,1.6-0.7,1.6-1.6&#xA;&#9;&#9;&#9;&#9;&#9;V318C345.9,315.8,344.5,314.6,342.1,314.6z M343.7,321.6c-0.8,0.5-1.6,0.8-2.6,0.8c-1.2,0-1.9-0.5-1.9-1.4s0.7-1.4,1.9-1.4h2.5&#xA;&#9;&#9;&#9;&#9;&#9;V321.6z" class="st2"/>
				<path d="M352.8,322.1c0,0-0.1,0-0.1,0c-0.9,0-1.6-0.6-1.6-1.6v-4h1.1c0.8,0,1.4-0.6,1.4-1.4v-0.3h-2.6v-2.5h-0.8&#xA;&#9;&#9;&#9;&#9;&#9;c-0.8,0-1.4,0.6-1.4,1.4v1.1c-0.8,0-1.4,0.6-1.4,1.4v0.3h1.4v4.3c0,2,1.3,3.1,3.1,3.1c0.8,0,1.6-0.2,2.4-0.6v0&#xA;&#9;&#9;&#9;&#9;&#9;C354.3,322.5,353.6,322,352.8,322.1z" class="st2"/>
				<path d="M357.6,311.4c-0.7,0-1.2,0.5-1.2,1.1s0.5,1.1,1.2,1.1c0.6,0,1.2-0.5,1.2-1.1&#xA;&#9;&#9;&#9;&#9;&#9;C358.8,311.9,358.3,311.4,357.6,311.4z" class="st2"/>
				<path d="M356.6,316.9v6.8c1.2,0,2.2-1,2.2-2.2v-6.8C357.5,314.8,356.6,315.7,356.6,316.9z" class="st2"/>
				<path d="M366.1,314.6c-2.8,0-5,2-5,4.7c0,2.6,2.2,4.7,5,4.7c2.8,0.1,5.1-2.1,5-4.7&#xA;&#9;&#9;&#9;&#9;&#9;C371.2,316.6,368.9,314.5,366.1,314.6z M366.1,322.1c-1.6,0-2.8-1.2-2.8-2.8s1.2-2.8,2.8-2.8c1.6,0,2.9,1.2,2.9,2.8&#xA;&#9;&#9;&#9;&#9;&#9;S367.8,322.1,366.1,322.1z" class="st2"/>
				<path d="M379.3,314.6c-1.3,0-2.6,0.5-3.7,1.3v-1.1h0c-1.2,0-2.2,1-2.2,2.2v4.6c0,1.2,1,2.2,2.2,2.2h0v-6.3&#xA;&#9;&#9;&#9;&#9;&#9;c0.9-0.8,1.9-1.2,2.9-1.1c1.1,0,1.9,1,1.9,2v3.2c0,1.2,1,2.2,2.2,2.2v-6C382.6,315.8,381.4,314.6,379.3,314.6z" class="st2"/>
			</g>
		</g>
	</g>
</g>
</svg>